<svg width="603" height="117" viewBox="0 0 603 117" fill="none" xmlns="http://www.w3.org/2000/svg">
<g clip-path="url(#clip0_4_216)">
<path d="M167.19 20.2628H135.802V100.267H131.672V20.2628H100.284V16.4868H167.19V20.2628ZM190.938 101.447C186.848 101.447 182.954 100.621 179.256 98.9688C175.638 97.2382 172.452 94.9175 169.698 92.0068C167.024 89.0175 164.9 85.5955 163.326 81.7408C161.832 77.8075 161.084 73.6382 161.084 69.2328C161.084 63.4902 162.382 58.2588 164.978 53.5388C167.574 48.8188 171.075 45.0428 175.48 42.2108C179.964 39.3788 184.96 37.9628 190.466 37.9628C196.13 37.9628 201.165 39.4182 205.57 42.3288C210.054 45.1608 213.634 48.9762 216.308 53.7748C218.983 58.4948 220.32 63.7655 220.32 69.5868C220.32 69.9015 220.32 70.2162 220.32 70.5308C220.32 70.8455 220.281 71.1602 220.202 71.4748H165.214C165.608 76.4308 166.984 80.9148 169.344 84.9268C171.783 88.9388 174.89 92.1248 178.666 94.4848C182.521 96.8448 186.69 98.0248 191.174 98.0248C195.658 98.0248 199.867 96.8842 203.8 94.6028C207.734 92.2428 210.526 89.2535 212.178 85.6348L215.836 86.5788C214.656 89.4108 212.808 91.9675 210.29 94.2488C207.773 96.5302 204.823 98.3002 201.44 99.5588C198.136 100.818 194.636 101.447 190.938 101.447ZM165.096 68.0528H216.308C215.994 62.8608 214.656 58.2982 212.296 54.3648C210.015 50.3528 206.986 47.2062 203.21 44.9248C199.434 42.6435 195.226 41.5028 190.584 41.5028C186.022 41.5028 181.852 42.6435 178.076 44.9248C174.379 47.2062 171.35 50.3528 168.99 54.3648C166.709 58.3768 165.411 62.9395 165.096 68.0528ZM234.374 14.1268H238.504V89.7648C238.504 92.2822 239.134 94.1702 240.392 95.4288C241.73 96.6088 243.46 97.1988 245.584 97.1988C246.607 97.1988 247.748 97.0808 249.006 96.8448C250.344 96.6088 251.524 96.3335 252.546 96.0188L253.49 99.3228C252.31 99.7162 250.816 100.07 249.006 100.385C247.276 100.7 245.781 100.857 244.522 100.857C241.533 100.857 239.094 99.9522 237.206 98.1428C235.318 96.2548 234.374 93.7375 234.374 90.5908V14.1268ZM288.542 101.447C284.451 101.447 280.557 100.621 276.86 98.9688C273.241 97.2382 270.055 94.9175 267.302 92.0068C264.627 89.0175 262.503 85.5955 260.93 81.7408C259.435 77.8075 258.688 73.6382 258.688 69.2328C258.688 63.4902 259.986 58.2588 262.582 53.5388C265.178 48.8188 268.679 45.0428 273.084 42.2108C277.568 39.3788 282.563 37.9628 288.07 37.9628C293.734 37.9628 298.769 39.4182 303.174 42.3288C307.658 45.1608 311.237 48.9762 313.912 53.7748C316.587 58.4948 317.924 63.7655 317.924 69.5868C317.924 69.9015 317.924 70.2162 317.924 70.5308C317.924 70.8455 317.885 71.1602 317.806 71.4748H262.818C263.211 76.4308 264.588 80.9148 266.948 84.9268C269.387 88.9388 272.494 92.1248 276.27 94.4848C280.125 96.8448 284.294 98.0248 288.778 98.0248C293.262 98.0248 297.471 96.8842 301.404 94.6028C305.337 92.2428 308.13 89.2535 309.782 85.6348L313.44 86.5788C312.26 89.4108 310.411 91.9675 307.894 94.2488C305.377 96.5302 302.427 98.3002 299.044 99.5588C295.74 100.818 292.239 101.447 288.542 101.447ZM262.7 68.0528H313.912C313.597 62.8608 312.26 58.2982 309.9 54.3648C307.619 50.3528 304.59 47.2062 300.814 44.9248C297.038 42.6435 292.829 41.5028 288.188 41.5028C283.625 41.5028 279.456 42.6435 275.68 44.9248C271.983 47.2062 268.954 50.3528 266.594 54.3648C264.313 58.3768 263.015 62.9395 262.7 68.0528ZM420.478 100.267H416.466V66.0468C416.466 57.7868 415.168 51.6902 412.572 47.7568C410.055 43.7448 406.161 41.7388 400.89 41.7388C395.383 41.7388 390.585 43.6268 386.494 47.4028C382.403 51.1788 379.532 56.0562 377.88 62.0348V100.267H373.868V66.0468C373.868 57.7082 372.609 51.5722 370.092 47.6388C367.653 43.7055 363.759 41.7388 358.41 41.7388C353.061 41.7388 348.301 43.5875 344.132 47.2848C340.041 50.9822 337.131 55.8595 335.4 61.9168V100.267H331.388V38.9068H335.282V54.2468C337.878 49.0548 341.221 45.0428 345.312 42.2108C349.481 39.3788 354.005 37.9628 358.882 37.9628C363.995 37.9628 368.204 39.5362 371.508 42.6828C374.812 45.8295 376.779 49.9988 377.408 55.1908C380.397 49.4482 383.898 45.1608 387.91 42.3288C391.922 39.4182 396.524 37.9628 401.716 37.9628C405.02 37.9628 407.813 38.5528 410.094 39.7328C412.454 40.9128 414.381 42.6828 415.876 45.0428C417.449 47.3242 418.59 50.1955 419.298 53.6568C420.085 57.1182 420.478 61.0908 420.478 65.5748V100.267ZM464.39 101.447C460.299 101.447 456.405 100.621 452.708 98.9688C449.089 97.2382 445.903 94.9175 443.15 92.0068C440.475 89.0175 438.351 85.5955 436.778 81.7408C435.283 77.8075 434.536 73.6382 434.536 69.2328C434.536 63.4902 435.834 58.2588 438.43 53.5388C441.026 48.8188 444.526 45.0428 448.932 42.2108C453.416 39.3788 458.411 37.9628 463.918 37.9628C469.582 37.9628 474.616 39.4182 479.022 42.3288C483.506 45.1608 487.085 48.9762 489.76 53.7748C492.434 58.4948 493.772 63.7655 493.772 69.5868C493.772 69.9015 493.772 70.2162 493.772 70.5308C493.772 70.8455 493.732 71.1602 493.654 71.4748H438.666C439.059 76.4308 440.436 80.9148 442.796 84.9268C445.234 88.9388 448.342 92.1248 452.118 94.4848C455.972 96.8448 460.142 98.0248 464.626 98.0248C469.11 98.0248 473.318 96.8842 477.252 94.6028C481.185 92.2428 483.978 89.2535 485.63 85.6348L489.288 86.5788C488.108 89.4108 486.259 91.9675 483.742 94.2488C481.224 96.5302 478.274 98.3002 474.892 99.5588C471.588 100.818 468.087 101.447 464.39 101.447ZM438.548 68.0528H489.76C489.445 62.8608 488.108 58.2982 485.748 54.3648C483.466 50.3528 480.438 47.2062 476.662 44.9248C472.886 42.6435 468.677 41.5028 464.036 41.5028C459.473 41.5028 455.304 42.6435 451.528 44.9248C447.83 47.2062 444.802 50.3528 442.442 54.3648C440.16 58.3768 438.862 62.9395 438.548 68.0528ZM534.73 42.6828C529.144 42.9188 524.228 44.7282 519.98 48.1108C515.81 51.4148 512.9 55.9382 511.248 61.6808V100.267H507.236V38.9068H511.13V54.4828C513.254 50.1562 516.086 46.6162 519.626 43.8628C523.244 41.1095 527.02 39.4968 530.954 39.0248C531.74 38.9462 532.448 38.9068 533.078 38.9068C533.786 38.9068 534.336 38.9068 534.73 38.9068V42.6828ZM569.022 101.447C564.932 101.447 561.038 100.621 557.34 98.9688C553.722 97.2382 550.536 94.9175 547.782 92.0068C545.108 89.0175 542.984 85.5955 541.41 81.7408C539.916 77.8075 539.168 73.6382 539.168 69.2328C539.168 63.4902 540.466 58.2588 543.062 53.5388C545.658 48.8188 549.159 45.0428 553.564 42.2108C558.048 39.3788 563.044 37.9628 568.55 37.9628C574.214 37.9628 579.249 39.4182 583.654 42.3288C588.138 45.1608 591.718 48.9762 594.392 53.7748C597.067 58.4948 598.404 63.7655 598.404 69.5868C598.404 69.9015 598.404 70.2162 598.404 70.5308C598.404 70.8455 598.365 71.1602 598.286 71.4748H543.298C543.692 76.4308 545.068 80.9148 547.428 84.9268C549.867 88.9388 552.974 92.1248 556.75 94.4848C560.605 96.8448 564.774 98.0248 569.258 98.0248C573.742 98.0248 577.951 96.8842 581.884 94.6028C585.818 92.2428 588.61 89.2535 590.262 85.6348L593.92 86.5788C592.74 89.4108 590.892 91.9675 588.374 94.2488C585.857 96.5302 582.907 98.3002 579.524 99.5588C576.22 100.818 572.72 101.447 569.022 101.447ZM543.18 68.0528H594.392C594.078 62.8608 592.74 58.2982 590.38 54.3648C588.099 50.3528 585.07 47.2062 581.294 44.9248C577.518 42.6435 573.31 41.5028 568.668 41.5028C564.106 41.5028 559.936 42.6435 556.16 44.9248C552.463 47.2062 549.434 50.3528 547.074 54.3648C544.793 58.3768 543.495 62.9395 543.18 68.0528Z" fill="#2B75B0"/>
<rect x="4.58913" y="2.00609" width="83.3949" height="112.994" rx="4" fill="#D42676"/>
<mask id="mask0_4_216" style="mask-type:alpha" maskUnits="userSpaceOnUse" x="4" y="2" width="84" height="113">
<rect x="4.58913" y="2.00609" width="83.3949" height="112.994" rx="4" fill="#D42676"/>
</mask>
<g mask="url(#mask0_4_216)">
<path d="M38.6946 61.5435L43.2514 66.1003C37.7692 71.5563 33.4229 78.045 30.4639 85.1912C27.5048 92.3373 25.9917 99.9991 26.0119 107.734L19.5717 107.734C19.5491 99.1529 21.2275 90.6527 24.5098 82.7245C27.7922 74.7963 32.6133 67.5972 38.6946 61.5435Z" fill="white"/>
<path d="M66.5665 9.27767L73.0067 9.2777C73.0293 17.8585 71.3509 26.3587 68.0686 34.2869C64.7863 42.2151 59.9651 49.4142 53.8838 55.4679L49.327 50.9111C54.8072 45.4536 59.1522 38.9646 62.1111 31.8188C65.07 24.673 66.5843 17.0119 66.5665 9.27767Z" fill="white"/>
<path d="M26.0108 9.27693C25.9896 17.0145 27.5034 24.6794 30.4644 31.828C33.4255 38.9767 37.775 45.467 43.2612 50.9234L53.8663 61.5284C59.953 67.5816 64.7785 74.7821 68.0634 82.7129C71.3484 90.6437 73.0275 99.1474 73.0035 107.732L66.56 107.732C66.5813 99.994 65.0675 92.329 62.1065 85.1804C59.1454 78.0318 54.7958 71.5414 49.3095 66.0851L38.7045 55.4801C32.618 49.4268 27.7925 42.2263 24.5076 34.2955C21.2227 26.3647 19.5435 17.861 19.5673 9.2769L26.0108 9.27693Z" fill="white"/>
</g>
</g>
<defs>
<clipPath id="clip0_4_216">
<rect width="603" height="117" fill="white"/>
</clipPath>
</defs>
</svg>
